<?xml version="1.0" encoding="UTF-8" standalone="no"?>
<!DOCTYPE svg PUBLIC "-//W3C//DTD SVG 1.1//EN"
 "http://www.w3.org/Graphics/SVG/1.1/DTD/svg11.dtd">
<!-- Generated by graphviz version 2.38.0 (20140413.2041)
 -->
<!-- Title: behaviorTemplate Pages: 1 -->
<svg width="288pt" height="358pt"
 viewBox="0.00 0.00 288.00 358.05" xmlns="http://www.w3.org/2000/svg" xmlns:xlink="http://www.w3.org/1999/xlink">
<g id="graph0" class="graph" transform="scale(0.972973 0.972973) rotate(0) translate(4 364)">
<title>behaviorTemplate</title>
<polygon fill="white" stroke="none" points="-4,4 -4,-364 292,-364 292,4 -4,4"/>
<!-- a -->
<g id="node1" class="node"><title>a</title>
<ellipse fill="grey" stroke="white" cx="93.3636" cy="-32" rx="18" ry="18"/>
<text text-anchor="middle" x="93.3636" y="-29.5" font-family="arial" font-size="10.00">Initial</text>
</g>
<!-- b -->
<g id="node2" class="node"><title>b</title>
<ellipse fill="grey" stroke="white" cx="52.3636" cy="-180" rx="18" ry="18"/>
<text text-anchor="middle" x="52.3636" y="-177.5" font-family="arial" font-size="10.00">Choice #1</text>
</g>
<!-- a&#45;&gt;b -->
<g id="edge1" class="edge"><title>a&#45;&gt;b</title>
<path fill="none" stroke="black" d="M88.7401,-49.4643C81.6962,-74.5473 68.2088,-122.576 59.7834,-152.578"/>
<polygon fill="black" stroke="black" points="56.3672,-151.798 57.0332,-162.372 63.1065,-153.691 56.3672,-151.798"/>
<text text-anchor="start" x="73.3636" y="-104.5" font-family="times" font-size="10.00"> x</text>
<text text-anchor="start" x="81.3636" y="-104.5" font-family="times" baseline-shift="sub" font-size="10.00">1</text>
</g>
<!-- c -->
<g id="node3" class="node"><title>c</title>
<ellipse fill="grey" stroke="white" cx="235.364" cy="-180" rx="18" ry="18"/>
<text text-anchor="middle" x="235.364" y="-177.5" font-family="arial" font-size="10.00">Choice #2</text>
</g>
<!-- a&#45;&gt;c -->
<g id="edge3" class="edge"><title>a&#45;&gt;c</title>
<path fill="none" stroke="black" d="M105.47,-45.4479C130.098,-70.7687 186.208,-128.46 215.979,-159.069"/>
<polygon fill="black" stroke="black" points="213.806,-161.855 223.287,-166.584 218.824,-156.975 213.806,-161.855"/>
<text text-anchor="start" x="168.364" y="-104.5" font-family="times" font-size="10.00"> y</text>
<text text-anchor="start" x="176.364" y="-104.5" font-family="times" baseline-shift="sub" font-size="10.00">1</text>
</g>
<!-- b&#45;&gt;a -->
<g id="edge2" class="edge"><title>b&#45;&gt;a</title>
<path fill="none" stroke="black" stroke-dasharray="5,2" d="M62.7935,-165.137C71.9594,-152.073 84.6939,-131.559 90.3636,-111.5 95.0204,-95.025 95.8315,-75.832 95.4488,-60.5479"/>
<polygon fill="black" stroke="black" points="98.9302,-60.0421 94.9971,-50.2044 91.9368,-60.3476 98.9302,-60.0421"/>
<text text-anchor="start" x="92.3636" y="-104.5" font-family="times" font-size="10.00"> x</text>
<text text-anchor="start" x="100.364" y="-104.5" font-family="times" baseline-shift="sub" font-size="10.00">2</text>
</g>
<!-- d -->
<g id="node4" class="node"><title>d</title>
<ellipse fill="grey" stroke="white" cx="151.364" cy="-328" rx="18" ry="18"/>
<text text-anchor="middle" x="151.364" y="-325.5" font-family="arial" font-size="10.00">Final</text>
</g>
<!-- b&#45;&gt;d -->
<g id="edge5" class="edge"><title>b&#45;&gt;d</title>
<path fill="none" stroke="black" d="M62.0364,-195.265C79.2182,-220.604 115.194,-273.658 135.864,-304.142"/>
<polygon fill="black" stroke="black" points="132.996,-306.149 141.505,-312.461 138.789,-302.22 132.996,-306.149"/>
<text text-anchor="start" x="104.364" y="-252.5" font-family="times" font-size="10.00"> z</text>
<text text-anchor="start" x="112.364" y="-252.5" font-family="times" baseline-shift="sub" font-size="10.00">0</text>
</g>
<!-- c&#45;&gt;a -->
<g id="edge4" class="edge"><title>c&#45;&gt;a</title>
<path fill="none" stroke="black" stroke-dasharray="5,2" d="M227.65,-163.367C218.901,-146.62 203.475,-119.845 185.364,-100.5 165.143,-78.9023 137.204,-59.5312 117.434,-47.1393"/>
<polygon fill="black" stroke="black" points="119.073,-44.0391 108.719,-41.7958 115.414,-50.0067 119.073,-44.0391"/>
<text text-anchor="start" x="193.364" y="-104.5" font-family="times" font-size="10.00"> y</text>
<text text-anchor="start" x="201.364" y="-104.5" font-family="times" baseline-shift="sub" font-size="10.00">2</text>
</g>
<!-- c&#45;&gt;d -->
<g id="edge6" class="edge"><title>c&#45;&gt;d</title>
<path fill="none" stroke="black" d="M226.691,-196.075C212.103,-221.429 182.546,-272.801 165.108,-303.111"/>
<polygon fill="black" stroke="black" points="162.069,-301.375 160.115,-311.789 168.136,-304.866 162.069,-301.375"/>
<text text-anchor="start" x="195.364" y="-252.5" font-family="times" font-size="10.00"> z</text>
<text text-anchor="start" x="203.364" y="-252.5" font-family="times" baseline-shift="sub" font-size="10.00">0</text>
</g>
</g>
</svg>
